<svg width="18" height="18" viewBox="0 0 18 18" fill="none" xmlns="http://www.w3.org/2000/svg">
<path d="M17 17C17.3166 16.6876 17.568 16.3155 17.7396 15.9053C17.9113 15.495 17.9998 15.0547 18 14.61V3.38C18 2.48357 17.6439 1.62385 17.01 0.989979C16.3761 0.356106 15.5164 0 14.62 0H3.38C2.93695 0.00153909 2.49859 0.0906846 2.09013 0.262306C1.68167 0.433927 1.31119 0.684635 1 1L17 17Z" fill="#F8C77E"/>
<path d="M1 1C0.684635 1.31119 0.433927 1.68167 0.262306 2.09013C0.0906846 2.49859 0.00153909 2.93695 0 3.38V14.62C0 15.5164 0.356106 16.3761 0.989979 17.01C1.62385 17.6439 2.48357 18 3.38 18H14.62C15.063 17.9985 15.5014 17.9093 15.9099 17.7377C16.3183 17.5661 16.6888 17.3154 17 17L1 1Z" fill="#E7A33E"/>
</svg>
